<svg xmlns="http://www.w3.org/2000/svg" viewBox="0 0 640 480" width="640" height="480" role="img" aria-label="Foto ilustrativa de um sofá de 3 lugares com uma mancha no assento do meio">
  <defs>
    <linearGradient id="wall" x1="0" y1="0" x2="0" y2="1"><stop offset="0" stop-color="#F4EEE6"/><stop offset="1" stop-color="#E8DFD2"/></linearGradient>
    <linearGradient id="floor" x1="0" y1="0" x2="0" y2="1"><stop offset="0" stop-color="#D8C8B3"/><stop offset="1" stop-color="#CBB89F"/></linearGradient>
    <linearGradient id="fab" x1="0" y1="0" x2="0" y2="1"><stop offset="0" stop-color="#9DB0C4"/><stop offset="1" stop-color="#8399B0"/></linearGradient>
    <linearGradient id="fab2" x1="0" y1="0" x2="0" y2="1"><stop offset="0" stop-color="#A9BBCD"/><stop offset="1" stop-color="#93A8BE"/></linearGradient>
    <radialGradient id="stain" cx="0.5" cy="0.5" r="0.5"><stop offset="0" stop-color="#6E7F8F" stop-opacity=".55"/><stop offset=".7" stop-color="#7B8C9C" stop-opacity=".35"/><stop offset="1" stop-color="#8A9BAB" stop-opacity="0"/></radialGradient>
    <radialGradient id="light" cx="0.75" cy="0.1" r="0.8"><stop offset="0" stop-color="#FFFFFF" stop-opacity=".55"/><stop offset="1" stop-color="#FFFFFF" stop-opacity="0"/></radialGradient>
  </defs>
  <rect width="640" height="480" fill="url(#wall)"/>
  <rect width="640" height="480" fill="url(#light)"/>
  <rect y="352" width="640" height="128" fill="url(#floor)"/>
  <rect y="350" width="640" height="4" fill="#C2AE94" opacity=".6"/>
  <!-- quadro na parede -->
  <rect x="250" y="70" width="140" height="96" rx="6" fill="#FBF8F3" stroke="#D9CDBD" stroke-width="6"/>
  <path d="M262 150 300 110 326 136 344 120 378 150Z" fill="#B9C9B0"/>
  <circle cx="350" cy="98" r="10" fill="#F2C48A"/>
  <!-- planta -->
  <path d="M556 300c-30-40-18-90 6-120 4 34 10 70-6 120Z" fill="#7FA77A"/>
  <path d="M560 300c10-50 40-80 66-92-14 34-30 68-66 92Z" fill="#6E9A69"/>
  <path d="M554 302c-26-22-58-30-82-26 22 18 48 28 82 26Z" fill="#86AE80"/>
  <path d="M532 300h52l-8 58h-36Z" fill="#E0CDB4"/>
  <!-- sombra -->
  <ellipse cx="300" cy="372" rx="250" ry="14" fill="#9F8B72" opacity=".35"/>
  <!-- sofá -->
  <rect x="70" y="170" width="460" height="120" rx="26" fill="url(#fab)"/>
  <rect x="88" y="182" width="138" height="104" rx="20" fill="url(#fab2)"/>
  <rect x="231" y="182" width="138" height="104" rx="20" fill="url(#fab2)"/>
  <rect x="374" y="182" width="138" height="104" rx="20" fill="url(#fab2)"/>
  <rect x="78" y="268" width="444" height="74" rx="18" fill="#8DA2B8"/>
  <rect x="92" y="262" width="134" height="58" rx="16" fill="#A3B5C8"/>
  <rect x="233" y="262" width="134" height="58" rx="16" fill="#A3B5C8"/>
  <rect x="374" y="262" width="134" height="58" rx="16" fill="#A3B5C8"/>
  <ellipse cx="300" cy="290" rx="36" ry="16" fill="url(#stain)"/>
  <ellipse cx="318" cy="284" rx="12" ry="6" fill="url(#stain)"/>
  <rect x="40" y="220" width="62" height="128" rx="24" fill="url(#fab)"/>
  <rect x="498" y="220" width="62" height="128" rx="24" fill="url(#fab)"/>
  <rect x="44" y="222" width="54" height="22" rx="11" fill="#AEC0D2" opacity=".7"/>
  <rect x="502" y="222" width="54" height="22" rx="11" fill="#AEC0D2" opacity=".7"/>
  <rect x="70" y="342" width="14" height="22" rx="4" fill="#8A6A4A"/>
  <rect x="516" y="342" width="14" height="22" rx="4" fill="#8A6A4A"/>
  <rect x="293" y="342" width="14" height="18" rx="4" fill="#8A6A4A"/>
  <!-- almofada -->
  <rect x="112" y="216" width="70" height="56" rx="18" fill="#F0B27A" transform="rotate(-10 147 244)"/>
  <rect x="122" y="226" width="50" height="36" rx="12" fill="#F4C394" transform="rotate(-10 147 244)"/>
</svg>
